<?xml version="1.0" encoding="UTF-8"?>
<!DOCTYPE svg PUBLIC "-//W3C//DTD SVG 1.1//EN" "http://www.w3.org/Graphics/SVG/1.1/DTD/svg11.dtd">
<!-- Creator: CorelDRAW 2021 (64 Bit) -->
<svg xmlns="http://www.w3.org/2000/svg" xml:space="preserve" width="350px" height="350px" version="1.1" style="shape-rendering:geometricPrecision; text-rendering:geometricPrecision; image-rendering:optimizeQuality; fill-rule:evenodd; clip-rule:evenodd"
viewBox="0 0 350 350"
 xmlns:xlink="http://www.w3.org/1999/xlink"
 xmlns:xodm="http://www.corel.com/coreldraw/odm/2003">
 <defs>
  <style type="text/css">
   <![CDATA[
    .fil0 {fill:#220E40;fill-rule:nonzero}
   ]]>
  </style>
 </defs>
 <g id="Camada_x0020_1">
  <metadata id="CorelCorpID_0Corel-Layer"/>
  <path class="fil0" d="M24 1l27.26 309.22 122.74 40.78 122.73 -40.78 27.27 -309.22 -300 0zm244.61 62.5l-3.75 36.95 -90.08 38.52 -0.23 0.08 87.11 0 -10 114.53 -76.72 22.42 -77.19 -22.81 -5 -57.74 38.2 0 2.5 29.92 41.1 10.39 42.73 -12.03 2.89 -48.12 -129.92 -0.39 0 -0.08 -0.16 0.08 -2.81 -36.17 87.58 -36.49 5.08 -2.11 -96.02 0 -4.53 -36.95 189.22 0z"/>
 </g>
</svg>
