<?xml version="1.0" encoding="UTF-8"?>
<!DOCTYPE svg PUBLIC "-//W3C//DTD SVG 1.1//EN" "http://www.w3.org/Graphics/SVG/1.1/DTD/svg11.dtd">
<!-- Creator: CorelDRAW 2021 (64 Bit) -->
<svg xmlns="http://www.w3.org/2000/svg" xml:space="preserve" width="350px" height="350px" version="1.1" style="shape-rendering:geometricPrecision; text-rendering:geometricPrecision; image-rendering:optimizeQuality; fill-rule:evenodd; clip-rule:evenodd"
viewBox="0 0 350 350"
 xmlns:xlink="http://www.w3.org/1999/xlink"
 xmlns:xodm="http://www.corel.com/coreldraw/odm/2003">
 <defs>
  <style type="text/css">
   <![CDATA[
    .fil0 {fill:#220E40;fill-rule:nonzero}
   ]]>
  </style>
 </defs>
 <g id="Camada_x0020_1">
  <metadata id="CorelCorpID_0Corel-Layer"/>
  <path class="fil0" d="M322 53.12l0 30.61c0,26.98 -67.19,48.98 -150,48.98 -82.81,0 -150,-22 -150,-48.98l0 -30.61c0,-26.98 67.19,-48.98 150,-48.98 82.81,0 150,22 150,48.98zm0 68.88l0 68.88c0,26.97 -67.19,48.98 -150,48.98 -82.81,0 -150,-22.01 -150,-48.98l0 -68.88c32.23,22.19 91.21,32.53 150,32.53 58.79,0 117.77,-10.34 150,-32.53zm0 107.14l0 68.88c0,26.98 -67.19,48.98 -150,48.98 -82.81,0 -150,-22 -150,-48.98l0 -68.88c32.23,22.2 91.21,32.53 150,32.53 58.79,0 117.77,-10.33 150,-32.53z"/>
 </g>
</svg>
