<?xml version="1.0" encoding="UTF-8"?>
<!DOCTYPE svg PUBLIC "-//W3C//DTD SVG 1.1//EN" "http://www.w3.org/Graphics/SVG/1.1/DTD/svg11.dtd">
<!-- Creator: CorelDRAW 2021 (64 Bit) -->
<svg xmlns="http://www.w3.org/2000/svg" xml:space="preserve" width="635px" height="300px" version="1.1" style="shape-rendering:geometricPrecision; text-rendering:geometricPrecision; image-rendering:optimizeQuality; fill-rule:evenodd; clip-rule:evenodd"
viewBox="0 0 635 299.96"
 xmlns:xlink="http://www.w3.org/1999/xlink"
 xmlns:xodm="http://www.corel.com/coreldraw/odm/2003">
 <defs>
  <style type="text/css">
   <![CDATA[
    .fil1 {fill:#000096}
    .fil2 {fill:#0053CC}
    .fil3 {fill:#0BD1B4}
    .fil0 {fill:#220E40}
    .fil4 {fill:#FEFEFE;fill-rule:nonzero}
    .fil5 {fill:#220E40;fill-rule:nonzero}
   ]]>
  </style>
 </defs>
 <g id="Camada_x0020_1">
  <metadata id="CorelCorpID_0Corel-Layer"/>
  <polygon class="fil0" points="347.1,251.97 375.96,201.97 347.1,151.98 289.37,151.98 260.51,201.97 289.37,251.97 "/>
  <polygon class="fil1" points="462.55,151.98 433.69,101.99 375.96,101.99 347.1,151.98 375.96,201.97 433.69,201.97 "/>
  <polygon class="fil2" points="462.56,251.16 433.69,201.17 375.97,201.17 347.1,251.16 375.97,301.16 433.69,301.16 "/>
  <polygon class="fil3" points="433.69,2 375.96,2 347.1,51.99 375.96,101.99 433.69,101.99 462.55,51.99 "/>
  <polygon class="fil1" points="289.37,152.23 260.51,102.24 202.78,102.24 173.92,152.24 202.78,202.23 260.51,202.23 "/>
  <polygon class="fil2" points="289.37,251.97 260.51,201.97 202.78,201.98 173.92,251.97 202.78,301.96 260.51,301.96 "/>
  <polygon class="fil0" points="260.51,101.99 289.37,51.99 260.51,2 202.78,2 173.92,51.99 202.78,101.99 "/>
  <polygon class="fil0" points="173.92,251.97 202.78,201.97 173.92,151.98 116.19,151.98 87.33,201.98 116.19,251.97 "/>
  <polygon class="fil2" points="375.96,101.99 347.1,51.99 289.37,51.99 260.51,101.99 289.37,151.98 347.1,151.98 "/>
  <polygon class="fil2" points="116.19,151.98 87.33,101.99 29.6,101.99 0.73,151.98 29.6,201.98 87.33,201.98 "/>
  <polygon class="fil2" points="549.14,101.99 520.28,51.99 462.55,51.99 433.69,101.99 462.55,151.98 520.28,151.98 "/>
  <polygon class="fil0" points="606.87,201.97 635.73,151.98 606.87,101.98 549.14,101.99 520.28,151.98 549.14,201.97 "/>
  <path class="fil4" d="M342.29 176.32l-48.11 0c-2.65,0 -4.81,2.15 -4.81,4.81l0 32.07c0,2.65 2.16,4.81 4.81,4.81l19.24 0 -1.6 4.81 -7.22 0c-1.33,0 -2.4,1.07 -2.4,2.41 0,1.33 1.07,2.4 2.4,2.4l27.27 0c1.33,0 2.4,-1.07 2.4,-2.4 0,-1.34 -1.07,-2.41 -2.4,-2.41l-7.22 0 -1.6 -4.81 19.24 0c2.65,0 4.81,-2.16 4.81,-4.81l0 -32.07c0,-2.66 -2.16,-4.81 -4.81,-4.81zm-1.61 35.28l-44.9 0 0 -28.87 44.9 0 0 28.87 0 0z"/>
  <path class="fil4" d="M244.27 23.13l-25.25 0c-2.99,0 -5.41,2.42 -5.41,5.41l0 46.9c0,2.99 2.42,5.42 5.41,5.42l25.25 0c2.99,0 5.41,-2.43 5.41,-5.42l0 -46.9c0,-2.99 -2.42,-5.41 -5.41,-5.41zm-12.62 54.12c-2,0 -3.61,-1.61 -3.61,-3.61 0,-2 1.61,-3.61 3.61,-3.61 1.99,0 3.6,1.61 3.6,3.61 0,2 -1.61,3.61 -3.6,3.61zm12.62 -12.18c0,0.75 -0.61,1.35 -1.35,1.35l-22.55 0c-0.74,0 -1.35,-0.6 -1.35,-1.35l0 -35.18c0,-0.74 0.61,-1.35 1.35,-1.35l22.55 0c0.74,0 1.35,0.61 1.35,1.35l0 35.18 0 0z"/>
  <path class="fil5" d="M429.54 45.63c-0.88,-3.54 -2.55,-6.21 -6.11,-6.21l-4.6 0 0 5.43c0,4.22 -3.57,7.77 -7.65,7.77l-12.23 0c-3.34,0 -6.12,2.86 -6.12,6.22l0 11.66c0,3.32 2.89,5.27 6.12,6.22 3.87,1.13 7.59,1.34 12.23,0 3.08,-0.9 6.12,-2.69 6.12,-6.22l0 -4.66 -12.22 0 0 -1.56 18.35 0c3.56,0 4.88,-2.49 6.11,-6.21 1.29,-3.84 1.23,-7.52 0,-12.44zm-17.59 23.31c1.27,0 2.3,1.04 2.3,2.33 0,1.29 -1.03,2.33 -2.3,2.33 -1.26,0 -2.3,-1.05 -2.3,-2.33 0.01,-1.3 1.04,-2.33 2.3,-2.33zm-13.56 -17.86l12.23 0c3.4,0 6.12,-2.8 6.12,-6.21l0 -11.68c0,-3.32 -2.8,-5.8 -6.12,-6.36 -4.1,-0.68 -8.55,-0.65 -12.23,0.01 -5.18,0.91 -6.12,2.83 -6.12,6.37l0 4.66 12.25 0 0 1.55 -16.84 0c-3.56,0 -6.68,2.15 -7.65,6.21 -1.12,4.66 -1.17,7.57 0,12.44 0.87,3.62 2.94,6.21 6.5,6.21l4.21 0 0 -5.59c0,-4.04 3.49,-7.61 7.65,-7.61zm-0.77 -16.33c-1.27,0 -2.3,-1.04 -2.3,-2.32 0.01,-1.3 1.03,-2.34 2.3,-2.34 1.26,0 2.3,1.05 2.3,2.34 0,1.28 -1.03,2.32 -2.3,2.32z"/>
  <path class="fil4" d="M209.65 226.31l4 45.34 17.94 5.98 18.05 -5.98 3.99 -45.34 -43.98 0zm35.3 14.65l-21.05 0 0.47 5.66 20.11 0 -1.55 17 -11.22 3.09 0 0.04 -0.12 0 -11.31 -3.13 -0.69 -8.68 5.47 0 0.4 4.36 6.13 1.66 6.15 -1.66 0.68 -7.12 -19.11 0 -1.47 -16.68 27.62 0 -0.51 5.46 0 0z"/>
  <path class="fil4" d="M123.06 176.32l4 45.33 17.99 5.98 18 -5.98 4 -45.33 -43.99 0zm35.86 9.16l-0.54 5.42 -13.21 5.65 -0.04 0.01 12.78 0 -1.47 16.79 -11.25 3.29 -11.31 -3.35 -0.74 -8.46 5.6 0 0.37 4.39 6.02 1.52 6.27 -1.77 0.42 -7.05 -19.05 -0.06 0 -0.01 -0.02 0.01 -0.41 -5.3 12.84 -5.35 0.74 -0.31 -14.07 0 -0.67 -5.42 27.74 0z"/>
  <path class="fil4" d="M600.46 133.65l0 4.58c0,4.04 -10.06,7.33 -22.45,7.33 -12.4,0 -22.45,-3.29 -22.45,-7.33l0 -4.58c0,-4.04 10.05,-7.33 22.45,-7.33 12.39,0 22.45,3.29 22.45,7.33zm0 10.31l0 10.31c0,4.03 -10.06,7.33 -22.45,7.33 -12.4,0 -22.45,-3.3 -22.45,-7.33l0 -10.31c4.82,3.32 13.65,4.87 22.45,4.87 8.8,0 17.62,-1.55 22.45,-4.87zm0 16.03l0 10.31c0,4.04 -10.06,7.33 -22.45,7.33 -12.4,0 -22.45,-3.29 -22.45,-7.33l0 -10.31c4.82,3.33 13.65,4.87 22.45,4.87 8.8,0 17.62,-1.54 22.45,-4.87z"/>
 </g>
</svg>
