<?xml version="1.0" encoding="UTF-8"?>
<!DOCTYPE svg PUBLIC "-//W3C//DTD SVG 1.1//EN" "http://www.w3.org/Graphics/SVG/1.1/DTD/svg11.dtd">
<!-- Creator: CorelDRAW 2021 (64 Bit) -->
<svg xmlns="http://www.w3.org/2000/svg" xml:space="preserve" width="350px" height="350px" version="1.1" style="shape-rendering:geometricPrecision; text-rendering:geometricPrecision; image-rendering:optimizeQuality; fill-rule:evenodd; clip-rule:evenodd"
viewBox="0 0 350 350"
 xmlns:xlink="http://www.w3.org/1999/xlink"
 xmlns:xodm="http://www.corel.com/coreldraw/odm/2003">
 <defs>
  <style type="text/css">
   <![CDATA[
    .fil0 {fill:#220E40;fill-rule:nonzero}
   ]]>
  </style>
 </defs>
 <g id="Camada_x0020_1">
  <metadata id="CorelCorpID_0Corel-Layer"/>
  <path class="fil0" d="M343.58 131.64c-6.01,-24.14 -17.42,-42.34 -41.72,-42.34l-31.32 0 0 37.03c0,28.75 -24.38,52.96 -52.19,52.96l-83.43 0c-22.82,0 -41.72,19.53 -41.72,42.42l0 79.53c0,22.66 19.69,35.94 41.72,42.42 26.4,7.74 51.79,9.14 83.43,0 21.02,-6.09 41.72,-18.36 41.72,-42.42l0 -31.79 -83.36 0 0 -10.63 125.15 0c24.3,0 33.29,-16.95 41.72,-42.34 8.75,-26.17 8.36,-51.33 0,-84.84l0 0zm-119.99 158.98c8.67,0 15.7,7.11 15.7,15.86 0,8.82 -7.03,15.93 -15.7,15.93 -8.6,0 -15.71,-7.18 -15.71,-15.93 0.08,-8.83 7.11,-15.86 15.71,-15.86zm-92.5 -121.79l83.43 0c23.21,0 41.72,-19.14 41.72,-42.42l0 -79.61c0,-22.66 -19.06,-39.61 -41.72,-43.44 -27.97,-4.61 -58.36,-4.37 -83.43,0.08 -35.31,6.25 -41.72,19.3 -41.72,43.44l0 31.79 83.51 0 0 10.63 -114.84 0c-24.29,0 -45.54,14.61 -52.18,42.34 -7.66,31.8 -7.97,51.64 0,84.84 5.94,24.69 20.08,42.34 44.37,42.34l28.67 0 0 -38.12c0,-27.58 23.83,-51.88 52.19,-51.88l0 0.01zm-5.24 -111.41c-8.67,0 -15.7,-7.11 -15.7,-15.86 0.08,-8.82 7.03,-15.93 15.7,-15.93 8.6,0 15.71,7.19 15.71,15.93 0,8.75 -7.03,15.86 -15.71,15.86z"/>
 </g>
</svg>
